<svg width="809" height="134" xmlns="http://www.w3.org/2000/svg">
    <g fill="none">
        <polyline
                fill="#172031"
                points="181.733 1.772 193.91 1.772 193.91 36.62 226.876 1.772 241.825 1.772 213.016 31.57 243.111 71.071 228.361 71.071 204.701 39.886 193.91 50.974 193.91 71.071 181.733 71.071 181.733 1.772"/>
        <polyline
                fill="#172031"
                points="255.486 1.772 267.663 1.772 267.663 59.983 304.095 59.983 304.095 71.071 255.486 71.071 255.486 1.772"/>
        <polygon fill="#172031" points="321.44 71.071 333.616 71.071 333.616 1.772 321.44 1.772"/>
        <polyline fill="#172031"
                  points="353.11 1.772 365.286 1.772 365.286 36.62 398.253 1.772 413.201 1.772 384.393 31.57 414.488 71.071 399.737 71.071 376.077 39.886 365.286 50.974 365.286 71.071 353.11 71.071 353.11 1.772"/>
        <path d="M471.454 43.549l-11.979-27.719-11.88 27.719h23.859zm-17.424-42.272h11.286l30.492 69.794h-12.87l-7.029-16.731h-32.769l-7.127 16.731h-12.475l30.492-69.794z"
              fill="#172031"/>
        <polyline fill="#172031"
                  points="558.374 13.057 536.397 13.057 536.397 1.772 592.628 1.772 592.628 13.057 570.651 13.057 570.651 71.071 558.374 71.071 558.374 13.057"/>
        <path d="M672.719 36.421c0-19.701 14.751-35.838 35.739-35.838 12.771 0 20.492 4.456 27.125 10.791l-7.82 9.009c-5.544-5.148-11.484-8.613-19.404-8.613-13.266 0-22.87 10.891-22.87 24.651 0 13.563 9.604 24.651 22.87 24.651 8.513 0 13.959-3.465 19.898-9.009l7.821 7.92c-7.226 7.523-15.146 12.275-28.115 12.275-20.196 0-35.244-15.74-35.244-35.837"
              fill="#172031"/>
        <polyline fill="#172031"
                  points="750.83 1.772 763.007 1.772 763.007 30.581 796.072 30.581 796.072 1.772 808.249 1.772 808.249 71.071 796.072 71.071 796.072 41.866 763.007 41.866 763.007 71.071 750.83 71.071 750.83 1.772"/>
        <polygon fill="#172031" points="607.479 41.569 654.404 41.569 654.404 30.679 607.479 30.679"/>
        <polygon fill="#172031" points="607.479 71.071 659.354 71.071 659.354 60.181 607.479 60.181"/>
        <polygon fill="#172031" points="607.479 12.662 658.859 12.662 658.859 1.772 607.479 1.772"/>
        <path d="M515.922 41.539c-2.821 0-5.117-2.296-5.117-5.119 0-2.822 2.296-5.118 5.117-5.118 2.822 0 5.118 2.296 5.118 5.118 0 2.823-2.296 5.119-5.118 5.119"
              fill="#2E83B9"/>
        <polygon fill="#2E83B9" points="59.184 33.459 70.714 33.459 70.714 1.25 59.184 1.25"/>
        <polygon fill="#2E83B9" points="100.541 74.816 132.75 74.816 132.75 63.292 100.541 63.292"/>
        <polyline fill="#2E83B9" points="86.046 39.811 108.816 17.035 116.971 25.184 94.195 47.96 86.046 39.811"/>
        <polyline fill="#2E83B9"
                  points="0 124.466 46.852 77.609 0.552 77.609 0.552 64.123 69.883 64.123 69.883 133.449 56.391 133.449 56.391 87.148 9.546 134 0 124.466"/>
        <polyline fill="#2E83B9" points="86.046 98.304 94.195 90.149 116.97 112.924 108.816 121.08 86.046 98.304"/>
        <polyline fill="#2E83B9" points="12.927 25.184 21.082 17.035 43.858 39.811 35.702 47.96 12.927 25.184"/>
        <path d="M180.744 119.535c0-7.295 5.358-13.754 13.336-13.754 4.484 0 7.258 1.292 9.917 3.533l-1.938 2.279c-2.052-1.785-4.331-3.039-8.093-3.039-5.889 0-10.106 4.978-10.106 10.981 0 6.344 4.065 11.056 10.524 11.056 3.04 0 5.852-1.178 7.675-2.66v-6.611h-8.093v-2.697h10.981v10.6c-2.47 2.203-6.193 4.066-10.677 4.066-8.358 0-13.526-6.08-13.526-13.754"
              fill="#2E83B9"/>
        <polyline fill="#2E83B9"
                  points="219.504 106.237 222.506 106.237 222.506 130.059 237.476 130.059 237.476 132.833 219.504 132.833 219.504 106.237"/>
        <path d="M272.131 119.535c0-6.041-4.407-10.981-10.486-10.981-6.079 0-10.41 4.863-10.41 10.981 0 6.041 4.407 10.98 10.486 10.98 6.079 0 10.41-4.863 10.41-10.98zm-24.012 0c0-7.333 5.509-13.754 13.602-13.754s13.526 6.344 13.526 13.754c0 7.333-5.51 13.754-13.602 13.754-8.093 0-13.526-6.345-13.526-13.754z"
              fill="#2E83B9"/>
        <path d="M301.279 130.135c4.027 0 6.535-1.786 6.535-4.825 0-2.888-2.432-4.56-7.067-4.56h-8.397v9.385h8.929zm-1.064-12.045c3.609 0 6.117-1.633 6.117-4.825 0-2.621-2.09-4.331-5.889-4.331h-8.093v9.156h7.865zm-10.828-11.853h11.322c3.039 0 5.471.836 6.953 2.355 1.102 1.14 1.709 2.546 1.709 4.331 0 3.458-2.127 5.243-4.217 6.156 3.154.95 5.7 2.773 5.7 6.497 0 4.559-3.838 7.257-9.651 7.257h-11.816v-26.596z"
              fill="#2E83B9"/>
        <path d="M341.862 123.106l-6.042-13.565-6.079 13.565h12.121zm-7.41-17.06h2.813l12.12 26.787h-3.23l-3.116-7.03h-14.475l-3.154 7.03h-3.078l12.12-26.787z"
              fill="#2E83B9"/>
        <polyline fill="#2E83B9"
                  points="362.422 106.237 365.423 106.237 365.423 130.059 380.393 130.059 380.393 132.833 362.422 132.833 362.422 106.237"/>
        <polygon fill="#2E83B9" points="413.189 132.833 416.191 132.833 416.191 106.237 413.189 106.237"/>
        <path d="M454.605 119.535c0-6.041-4.408-10.981-10.487-10.981s-10.41 4.863-10.41 10.981c0 6.041 4.407 10.98 10.487 10.98 6.079 0 10.41-4.863 10.41-10.98zm-24.012 0c0-7.333 5.509-13.754 13.602-13.754 8.092 0 13.526 6.344 13.526 13.754 0 7.333-5.51 13.754-13.603 13.754-8.092 0-13.525-6.345-13.525-13.754z"
              fill="#2E83B9"/>
        <polyline fill="#2E83B9"
                  points="477.065 109.01 468.136 109.01 468.136 106.237 489.033 106.237 489.033 109.01 480.105 109.01 480.105 132.833 477.065 132.833 477.065 109.01"/>
        <path d="M519.892 128.958l1.861-2.205c2.775 2.508 5.434 3.762 9.119 3.762 3.572 0 5.927-1.9 5.927-4.598 0-2.469-1.329-3.875-6.915-5.052-6.117-1.33-8.929-3.306-8.929-7.751 0-4.18 3.686-7.257 8.74-7.257 3.875 0 6.648 1.101 9.346 3.267l-1.748 2.318c-2.47-2.014-4.939-2.888-7.675-2.888-3.457 0-5.661 1.9-5.661 4.369 0 2.508 1.368 3.913 7.219 5.167 5.928 1.292 8.663 3.458 8.663 7.6 0 4.559-3.8 7.522-9.081 7.522-4.217 0-7.675-1.405-10.866-4.254"
              fill="#2E83B9"/>
        <path d="M576.584 119.535c0-6.041-4.407-10.981-10.486-10.981-6.079 0-10.41 4.863-10.41 10.981 0 6.041 4.407 10.98 10.486 10.98 6.079 0 10.41-4.863 10.41-10.98zm-24.012 0c0-7.333 5.509-13.754 13.602-13.754s13.526 6.344 13.526 13.754c0 7.333-5.509 13.754-13.602 13.754s-13.526-6.345-13.526-13.754z"
              fill="#2E83B9"/>
        <polyline fill="#2E83B9"
                  points="593.839 106.237 596.84 106.237 596.84 130.059 611.81 130.059 611.81 132.833 593.839 132.833 593.839 106.237"/>
        <path d="M623.974 121.7v-15.463h3.001v15.273c0 5.738 3.04 8.967 8.131 8.967 4.901 0 8.016-2.964 8.016-8.777v-15.463h3.002v15.235c0 7.751-4.445 11.778-11.095 11.778-6.572 0-11.055-4.027-11.055-11.55"
              fill="#2E83B9"/>
        <polyline fill="#2E83B9"
                  points="668.052 109.01 659.123 109.01 659.123 106.237 680.021 106.237 680.021 109.01 671.092 109.01 671.092 132.833 668.052 132.833 668.052 109.01"/>
        <polygon fill="#2E83B9" points="693.703 132.833 696.705 132.833 696.705 106.237 693.703 106.237"/>
        <path d="M735.119 119.535c0-6.041-4.407-10.981-10.486-10.981-6.079 0-10.41 4.863-10.41 10.981 0 6.041 4.407 10.98 10.486 10.98 6.079 0 10.41-4.863 10.41-10.98zm-24.011 0c0-7.333 5.508-13.754 13.601-13.754s13.527 6.344 13.527 13.754c0 7.333-5.51 13.754-13.603 13.754s-13.525-6.345-13.525-13.754z"
              fill="#2E83B9"/>
        <polyline fill="#2E83B9"
                  points="752.375 106.237 755.187 106.237 771.942 127.551 771.942 106.237 774.867 106.237 774.867 132.833 772.474 132.833 755.3 111.024 755.3 132.833 752.375 132.833 752.375 106.237"/>
        <path d="M788.437 128.958l1.861-2.205c2.774 2.508 5.434 3.762 9.119 3.762 3.571 0 5.927-1.9 5.927-4.598 0-2.469-1.329-3.875-6.915-5.052-6.117-1.33-8.929-3.306-8.929-7.751 0-4.18 3.686-7.257 8.739-7.257 3.875 0 6.649 1.101 9.347 3.267l-1.748 2.318c-2.47-2.014-4.939-2.888-7.675-2.888-3.457 0-5.661 1.9-5.661 4.369 0 2.508 1.368 3.913 7.219 5.167 5.928 1.292 8.663 3.458 8.663 7.6 0 4.559-3.8 7.522-9.081 7.522-4.217 0-7.675-1.405-10.866-4.254"
              fill="#2E83B9"/>
    </g>
</svg>
